<?xml version="1.0" standalone="no"?>
<!DOCTYPE svg PUBLIC "-//W3C//DTD SVG 20010904//EN"
 "http://www.w3.org/TR/2001/REC-SVG-20010904/DTD/svg10.dtd">
<svg version="1.0" xmlns="http://www.w3.org/2000/svg"
 width="700.000000pt" height="700.000000pt" viewBox="0 0 700.000000 700.000000"
 preserveAspectRatio="xMidYMid meet">
<metadata>
Created by potrace 1.14, written by Peter Selinger 2001-2017
</metadata>
<g transform="translate(0.000000,700.000000) scale(0.100000,-0.100000)"
fill="#000000" stroke="none">
<path d="M5080 6250 c-97 -24 -158 -50 -239 -105 -130 -86 -224 -210 -281
-370 l-35 -100 -3 -1820 c-2 -1217 0 -1832 7 -1855 8 -26 58 -83 185 -210 97
-96 175 -177 176 -180 0 -3 -789 -5 -1752 -4 -1326 0 -1763 3 -1793 12 -243
73 -378 325 -300 562 32 99 118 201 205 245 108 55 99 54 797 55 689 0 718 2
850 52 130 48 288 187 360 316 165 295 115 648 -127 882 -73 71 -146 119 -240
157 -115 46 -174 50 -698 49 -464 -1 -488 -2 -519 -21 -96 -59 -89 -200 12
-253 26 -13 99 -15 525 -17 443 -2 500 -4 545 -19 144 -51 237 -145 286 -288
27 -81 23 -205 -10 -288 -46 -118 -146 -213 -268 -255 l-68 -23 -651 -1 c-358
-1 -660 -3 -671 -5 -11 -3 -36 -7 -54 -10 -174 -29 -361 -152 -462 -305 -145
-221 -166 -486 -56 -721 47 -102 126 -197 230 -279 60 -47 200 -109 289 -127
19 -4 919 -9 1999 -10 1651 -3 1968 -1 1991 11 14 7 171 159 348 336 l322 323
-2 1846 -3 1845 -22 65 c-68 209 -177 345 -353 443 -146 80 -353 107 -520 67z
m328 -301 c139 -55 227 -155 265 -303 12 -45 15 -111 14 -299 l-2 -242 -437 0
-437 -1 1 240 c1 262 10 332 56 413 56 100 162 180 277 209 73 18 194 11 263
-17z m214 -1139 l66 0 0 -1354 0 -1353 -219 -219 -219 -219 -219 219 -219 219
0 1353 0 1353 31 3 c18 2 185 2 372 1 187 -1 370 -2 407 -3z"/>
</g>
</svg>
