<?xml version="1.0" standalone="no"?>
<!DOCTYPE svg PUBLIC "-//W3C//DTD SVG 20010904//EN"
 "http://www.w3.org/TR/2001/REC-SVG-20010904/DTD/svg10.dtd">
<svg version="1.0" xmlns="http://www.w3.org/2000/svg"
 width="700.000000pt" height="700.000000pt" viewBox="0 0 700.000000 700.000000"
 preserveAspectRatio="xMidYMid meet">
<metadata>
Created by potrace 1.14, written by Peter Selinger 2001-2017
</metadata>
<g transform="translate(0.000000,700.000000) scale(0.100000,-0.100000)"
fill="#000000" stroke="none">
<path d="M5155 6412 c-181 -20 -379 -112 -511 -238 -119 -114 -224 -301 -249
-444 -2 -14 -7 -41 -11 -60 -10 -49 -12 -3625 -2 -3680 12 -68 35 -109 101
-178 l60 -62 -1566 0 c-1513 0 -1568 1 -1617 19 -115 44 -190 148 -190 266 0
90 24 151 85 211 89 90 58 86 819 89 696 2 714 3 844 49 114 41 277 146 342
222 102 119 152 203 193 327 35 104 42 151 42 287 -2 271 -119 508 -337 681
-112 88 -286 160 -424 175 -38 4 -283 8 -544 8 -436 1 -479 -1 -530 -17 -112
-38 -188 -134 -197 -251 -9 -104 29 -190 111 -255 73 -58 92 -60 636 -63 l495
-3 51 -27 c139 -73 197 -239 132 -378 -40 -87 -120 -152 -203 -166 -22 -4
-332 -8 -690 -9 -424 -1 -668 -6 -701 -13 -513 -110 -819 -612 -673 -1107 99
-336 402 -590 744 -622 39 -3 941 -7 2006 -7 1855 0 1937 1 1985 18 42 16 100
69 409 377 l360 358 -1 1858 c0 1447 -3 1872 -13 1923 -71 368 -356 647 -721
705 -49 8 -188 12 -235 7z m242 -617 c23 -14 57 -43 77 -66 57 -67 66 -109 66
-306 l0 -173 -290 0 -290 0 -1 28 c-2 116 1 293 6 321 21 117 115 208 236 229
60 11 146 -4 196 -33z m143 -1184 c1 -31 1 -594 1 -1252 l0 -1197 -145 -146
-145 -145 -146 146 -145 146 -1 56 c0 72 0 2446 0 2446 1 1 132 1 291 1 l290
0 0 -55z"/>
</g>
</svg>
